<mxfile host="65bd71144e">
    <diagram id="2zXV8EM3uju7GnkqTRAI" name="ページ1">
        <mxGraphModel dx="1118" dy="779" grid="1" gridSize="10" guides="1" tooltips="1" connect="1" arrows="1" fold="1" page="1" pageScale="1" pageWidth="827" pageHeight="1169" math="0" shadow="0">
            <root>
                <mxCell id="0"/>
                <mxCell id="1" parent="0"/>
                <mxCell id="17" style="edgeStyle=none;html=1;entryX=0.5;entryY=0;entryDx=0;entryDy=0;fontSize=20;" edge="1" parent="1" source="2" target="3">
                    <mxGeometry relative="1" as="geometry"/>
                </mxCell>
                <mxCell id="2" value="" style="shape=image;verticalLabelPosition=bottom;labelBackgroundColor=#ffffff;verticalAlign=top;aspect=fixed;imageAspect=0;image=data:image/png,iVBORw0KGgoAAAANSUhEUgAAASkAAABmCAYAAACX4GePAAAABGdBTUEAALGPC/xhBQAAAAlwSFlzAAAOwQAADsEBuJFr7QAAEtxJREFUeF7tnX14FdWdx6/StX2qT/exj2+PbX2qpb6AutothSUgb1MCRiMY6UOzVJYHmlIxGGER27BpeCAYSRGkCBuBWEiDMaApRREML3EhQgHLE14viTdU6uOu9s0WdbHu7m/nd+49c8/MPTNzJ7k3mTz5/vF5uHPmzJlzzpzzmd+cuZdEvvVPIwgAAMIKJAUACDWQFAAg1EBSAIBQA0kBAEINJAUACDWQFAAg1EBSAIBQA0kBAEINJAUACDWQFAAg1EBSAIBQA0kBAEINJAUACDWQFAAg1EBSAIBQA0kBAEINJAUACDWQFAAg1EBSAIBQA0kBAEINJAUACDWQFAAg1EBSAIBQA0kBAEKNTVKDh4607eTtITmjKWfkWBoxejyNNPIAAKBb8YykWE66gwAAoLsQktJFUMNHjdMeAAAA3Yk2kkIEBQAICylrUrwGpcsIAAA9QUokhSgKABAmUtak8BYPABAmUiIpXSYAAOgpICkAQKiBpAAAoQaSAgCEGkgKABBqul1Ss0seo6XLn6YNdc/TzqZdAv7MaTN++Ij2GABA36XbJPX9hx6hF158yRKTG5yH8+rKAKC3cZ+xjjbH3qAWYzbVtp6jvdX4snRQukVSiyqrtELyYvETVdqysklRYwdFGx/T7ssmS5vf6ZHzehHGOvVWZF9eX32M2lsbabkxUpuvN8Nz5+3mZ7T7ukrWJdUZQUn4WF2Z2SKIpDjvW7G3Ugg6CO82fhKqO6ysz6lYM72x4F+1eTrLXfnfp+8Vz6RJhveP10cb36XJxXPpB8WP0owp92vz9CbuWLCbDsb+Q0RTG1rbaNcCSCoIWZUUP7bp5BOE7nz062okxcf7SYrD/62xc1rBecHSaDKGasvkO7TumKBtkXXza4NO0GdaD9Lemsc9BVRQf4raYsdp7yJ92aOMB+gH6w7SgfazdPbUKYqeOk2n2mPUcXQHrZ91j/YYiVu/urWlM9dB9mfQY3V1YHEdiZ2k3ZV329IZvlGoMnM7H9fH7WYpOXvgOZpt/FjceHT7vVDr7XceNzIhrqxKavMW7zUomU+3T8JrVGqZ2aSrkuKwPuhFkXdZNwF5wce+GeuwBMb1V8/P9eGBkk6UJgdhOu139hNHSLMr62lH61k6faiOns4fZcvPjDMeo/VH2ujwgePUsb0iZT8zpe4EtUX30Qs/mmClcdnzGlrpWLSZNhWllisjP9lOZ39KgTuvi5z46fSNPEdnxgb3lZuk+Nqdib5Gdfl32fbpJMXrWn5jhPM1xs4EjtR4nHjdBNPBOfYySdYkxW/xdNJRkXl1+1S6K5pyTr4guA1kv4vX2XUKOfnUSaZbR5KTwW0yyskaZJC69ZORv4R+cVQ/mW9btJ+OHN9OP5uzmfZFd9NL+cPteR6so+2xKO0qS/3tKEdYC5p+S23Nq2mGkfwBvKy72r+6/pTXRs0XCkm1bqUNTe3UvucZW7u6U1I8Ztz6y6tvZP/xGGSOtx7vfZL66VMrtcJRkXl1+1S4LLXsbNEVSfGg4/DdOUD8JKUTix868XhNJJ64OglJ0QU9v1c/DajcT63RJtpsDLPSWDIVTWfpWEMxGcZ0WnngHTpYU2g7jh8F+dFEnawq3OZfmxP1Vw/Gow6deBg3KTilFBZJPZO/mOqPx6ilerq1r7sk5RwXXCcZhepkL3H2h9u1yBRZk9TGTfVa4ajIvLp9Kvw9KrXsbBFUUnKS65CDnyXkdvHkoJCvp3Xl6OqjK9Nr0ukGb5BJ6sSrn3TnGpdfTS9Ej9KOB+PR05iaY9Rx6Bf0I2OMladqj7es7zVW0pZojJoq4498buL16m/1hhCk/dmUFKffVbaLDkdftx5nu0NSsk3O9ss+ctZBRScwbmdXHxndyJqkdLLR5dPRlWO7QrqSkhdYXhTnIJbbUjRuF48HhJeMZDnqgHAbiDzodZEcI8vRDUheyE5nUKt49VOesThlcLOUzrY8a0VJLK2G6AlqmpMcb6pAdDjboMvvvA5OuN5SYGGSFEeasxujdGbfszTHMMT5nJLiuvKLBAk/Ik4xcm1lBpGUGjWlk66ik1Rnx1I6QFIK6UrKOfDcBCEHd0vjS+LxTC073QHlzOc2iNwmA+M1IWU0GCRU9+onZ315wfy5I+eo7cge2run2aLleAedfnmhdZyIpLYusLadcCS1OXqGXisbmSIsidt1kPBECqOkeJvX82qPxujwuulaSWU6ktKJJl2cfcdlvd3a6tn3XaFXPO5xWWrZmWRx80Hr4jsnn7pPohvc6uBXSeeu5IdzQurK9JtEfpNXHp/undBLUoOX7rOtSYnJGD1EO9atpbXrnktSv48ORXdZC+i8JuV8BFSR7X4lf1hKn0i8RO3so7BJKp62k/a3H6bdRXNDLSlG1N+88conhcNGVdrnDkqfXzjnC/vL1lfExVInH4tHN4DlZJEDhi+21+NckAhFh7N83UD0qgOTbj24nHSiKjdJybd7R+pnW2mPvhyzRUwSGWG9Xp1IS7zd031vSL7da2+qonwj/vaP26TWwU86un4Mm6SYwvqT9PahV6mxNZpVSfH5Mxn5cP/6SY+vGY+voI+FWZNUOl/klHl1+1Sy/RUE7mCemHLyuU1CRr248m6iG+hcZlee0eXE4IvqLF+VjlcdGM7rJTAncvJ6HePsn6GTHrK+J8VrJbyuwum89sSPaG5f3ixsaLOtVRVUH6YT0V/TtopCS0aj8udS2cunqC261/Y9KVU6sq/c5Mp5nf0YVkmNNR4Wbz/VsZMNSTE8NroSTUn8xiCjSsyt7W5kTVJMJr7MyWWoZWYLHkw8kBm/wajm1V2YdC6aRE4gHW71UAXG6M4j71pBBCWR5btJVm2/oP00nTi0h7Yue8iSC8ML5rEjDVRuuPSDGT29Yp5DLqBzxPS9VfvFN847oslvnJ9oeYmWF8XFp6LWQycotW+dfSQlJfeng7we8vrq8ugIIikmp2gT7YyezrqkvG6E6SKvgd+cCa2ketvPYtQIpbPIwd/Zi94V1EGXiTtkJvrDC5bSuHx9+gMz47/d+5dJwf9IrZw4XYlk+xI66fpJRx4T5CYob5yhedyT9KYfGAMAwkfWJcV0RlQQVDihSITomkj8s/lvT2zPGJb8NntvhC7zb2Mmt7cO/LL43FvpFkkx/Njmt0bFcJ7ufMQDwUlnYmRzu7dLivFrY6a3ezPdJikJC4i/UqB+j4o/cxrkBABw0u2SAgCAIEBSAIBQA0kB0IPwK3ldOkgCSQHQg0BS/kBSAPQgkJQ/fU5ShjGNvlX8Bn15WoF2f9gYa8yinLzUP0IwKu/hlLRMM2bKFrq6pFa7Lxtk69oYuQ/TXbnef8ihuxlTuEn0LSTlT5+TVL6xhi6uI4rM/2ftfobFcOesOhpq2Ac2/2D2lulltrRsM6jsPYpUt9JwJe3egtcp0nCBbiiYaMvrR57xBF223mx7xWbtficDK/+bImt+o93HjCg+SZH6D+mmCck/nNAV0rk2QWHx3bjs/yiydIt2fyYYl/cU3VIU7OdDOfPPib6FpPyBpDQ8YPyKIo3n6VYj35YuJm1l9ga7k3smvGxK4H/oqsJkZDHOmE9fWm3Wf+FztrzpwMfevPBtunTOk9r9TvwkNbZwO128opW+kXuvdn9QsiGpsdPeNPvwT3Rbrv1aZhIpHN0+NyCp9IGkNIRBUlYE4Djf6B+a0Uvd72iwI8rLBn6SyjSZltR4YwH9PUeO85do92cKSCq79GFJldId845RpMb8XPNXury4UuzPnbydPrvqgikpM33Vnymy5DXxqHXLwncpUmum1f7NTP8vunLaA+Lx6eqqKN1Z8FPqX/Gfpjz4mA7qP2WmdT5+dLy99Ez8PBsvUL/KQzSw4D6xb8TMFjP/MfqmkRqJ6CIArvvfcR1KHrHOfduEkmT5a/9AVxbNo/G5T9DXKsxJsJHrc4YGfKfIKoPb8YWZk6xtrp/VD2b9Lq7cT/+YFz+nlNSYqa/S51eZn+tMaVbE+4P3c1/1q9pvPRZ/c16ULi1Z7Jpfns+qr9nvny3dYO1zSopFPaDst6ao94pzcPmfm2d/rOL2ONMkOXPNPvh5TBzLff2ZBc+TMXU3fWatWS+zrZeUv2irG59v8OzDdFFi/8UVO2mIspbFZXxu/loan/czuqrKfAwv2yjqJNryPPf1H0X7OS8/At5UeoIuqv7EvI7mvhVRurkg+VgMSaVP35UUD5xVJ+nWqU/RwPL3TSl9Sl+dMJFyJ1TT10vbhKQuLT1A18ytFQN58KxmuqzaPKb6Lbq2tIW+VjgxWRYP0Ko3aNDkNXR95XmKvPgpXZdYL/pG+Qem2N6nW8zzDJ1aT1dVdhALjveJgdr4SUrE5hYBiPWpNYdFfWznXnFCtGPAwt9TZIu5zemJ+ly33JwkNW2WSK5Zw+UmJXAzi2jjB3RD0QoaPnkDfanqTxQp/3exX0iqwcxfe56unbWecopMqfL2grjQhUjrzllRncgvRK7Pb52v5pzoj2FTt9ElPMFXHbK3yaxfsm7vWI+TukhWtEcT3d6Xu1H0zWXT4kIWfc19VRev29CivYnr9qp1zJD5vzPTPqSvFD0t+uKLqz81z3/Wap8oo/od6sdtXHGG+k+dQ8Omb6Orln9kyvD38XEx/Sci77A5p4SYvp7o12tXmDe3n5+1rgMklT59V1ILn7Wl8cSWAzrdxz2rrPKnrDSeXF9ZZaYl8l230vy8ZJO1Px3UCECmOdendOeO15uoX3Hyv+8VImn8iG5PRGuqpO6efEBIkuUs86uI9q5vt0UTNy1N9oFWUh75xfm2nKf+ykK7aNeW/6UrzHYlJVUaP64mZlvvCiKpW5d8TJGVe61tIYX68/QPSmQ6vpDb/yENMNPuN+qF4OUYYKz6zIn/pjR+U+H62f+HDikcNc1JQe4O89jkmIKk0gdrUom0LklKKYvJedx89EsMWrGG9KKZZ+27dEVJLeX4vAp3RgAMi8+5PqU7t5SUeqyUlGyLKikxUUypqI88KqK9jsmn9oFWUh75defjtl3NEWrZk8k2caSyPmqTHePsf0YnqfjbT7sMxbnr3rWt5anXXbSl/r2UR28hy2U7xWddGVa6RlL8Nvj68pPJR77GC5BUJ4CkEmnZkhTDg/Wri96KTz5TWF+cMcuWX8UZATDxCZS6PpURSWkml8RPOp2SlOZ8ok5mtGm1abn52GVGPc6vWDj7n3FKyu3tp04w6nV3tkUizrn6iPisK8NKd7Rr6JxY/NG7soXunLwwZUzJYyApfyCpRFomJSWinqpttjTJoPI/u0YvugjAbX1Kd+6gkhpRYoqz/n3twj3jJ52gktKdz2pHyXdtbRLrQw0f20Tl7H/GKSm3t59aSU1oNvsm/rire/TlKE+Un1gaSFdS/DcC+QWH+tgNSXUeSCqRliqpC2KtQuZhxCRRvhRolVWa/KOWY4p+I6IluXZ0R/F2GpSXnJRCUmveFJ/Vt3uuEYBmfYrRtSOopKwylEmel1dD15U8LT77SSeopCYY6+OL1aXxhXmWwKDHebH6fbH2pLaJ9w1c+Bcz+nzPeit258IPLMHz/sFzzWiF14gS5fPx8u0nb6vEBfMHa42L34BezX2xsllsc/9fvtbcVm4u8Wv5ifUSxFNS1Sesba7HRWY7pKT4XP0r/2rW9WNIqhNAUok0VVL3GMvocl4n4XC9JmYNSmt9idcX5j6SLIvz8VssTq//lL4gv85gPEo3LLsQ3y/2MX+jKxKPe2KgJt7u6SIA3fqURNeOoJJicr/zS9F2q/5mXfvNWy32ZVpSzNgpu5LnY+o+ousTX9lwtolFJN7w1cbf8MVfHijHrjpKN1aYkz9Rvvr2U55PEu/rxHGJdvLx6rrXuILNdAlHrTKPci2tMjSSyi002yTrVdEg0m7nN8byupvpn3/cjNTq/wJJdYI+J6kgGPmLaIgSBTHit3STfiw+60ThxpiJT9KQicnwX4XL0UUAuvWpbCHqN6lUuy8bePWHCotK/d2d2J60NOW66L6dr+ImGB3iugfsC67XsEnltrRv5/0bDZ5sT3MCSfkDSXWBIJLyYtg8vqvGvysk0+67Z5u486rrU8AdIXQlYnMSRFLdCSTlT5+TVCb/c3u65kqx/cebO3d8Z7l/5JhA5+kT25fHP7sxnNev1icf3cMCJOVPn4yk0hr0Wd5uufEK8bkzsKT433TO05e2eyOQlD943AMAhBpICgAQaiApAECogaQAAKEGkgIAhBpICgAQalIkNWL0eG1GAADoCVIklTNyrDYjAAD0BCmSGpIzWpsRAAB6ghRJMYimAABhQSspZviocdoDAACgO3GVFIOICgDQ03hKiuE1KpYV3voBAHoCX0kBAEBPAkkBAEINJAUACDWQFAAg1EBSAIBQA0kBAEINJAUACDWQFAAg1EBSAIBQA0kBAEINJAUACDEj6P8BV6zJu+6Af3QAAAAASUVORK5CYII=;" vertex="1" parent="1">
                    <mxGeometry x="251.5" y="50" width="297" height="102" as="geometry"/>
                </mxCell>
                <mxCell id="18" style="edgeStyle=none;html=1;entryX=0.5;entryY=0;entryDx=0;entryDy=0;fontSize=20;" edge="1" parent="1" source="3" target="9">
                    <mxGeometry relative="1" as="geometry"/>
                </mxCell>
                <mxCell id="3" value="" style="rounded=0;whiteSpace=wrap;html=1;" vertex="1" parent="1">
                    <mxGeometry x="180" y="200" width="440" height="300" as="geometry"/>
                </mxCell>
                <mxCell id="4" value="みちのくDAOポータル" style="text;html=1;strokeColor=none;fillColor=none;align=center;verticalAlign=middle;whiteSpace=wrap;rounded=0;fontSize=20;" vertex="1" parent="1">
                    <mxGeometry x="190" y="220" width="210" height="30" as="geometry"/>
                </mxCell>
                <mxCell id="6" value="NFT" style="ellipse;whiteSpace=wrap;html=1;aspect=fixed;fontSize=20;" vertex="1" parent="1">
                    <mxGeometry x="460" y="280" width="80" height="80" as="geometry"/>
                </mxCell>
                <mxCell id="7" value="$0.00" style="text;html=1;strokeColor=none;fillColor=none;align=center;verticalAlign=middle;whiteSpace=wrap;rounded=0;fontSize=20;" vertex="1" parent="1">
                    <mxGeometry x="265" y="305" width="60" height="30" as="geometry"/>
                </mxCell>
                <mxCell id="8" value="入手" style="rounded=1;whiteSpace=wrap;html=1;fontSize=20;" vertex="1" parent="1">
                    <mxGeometry x="440" y="410" width="120" height="60" as="geometry"/>
                </mxCell>
                <mxCell id="19" style="edgeStyle=none;html=1;entryX=0.5;entryY=0;entryDx=0;entryDy=0;fontSize=20;" edge="1" parent="1" source="9" target="11">
                    <mxGeometry relative="1" as="geometry"/>
                </mxCell>
                <mxCell id="9" value="Smart Contractでの取引(Solidar)" style="rounded=1;whiteSpace=wrap;html=1;fontSize=20;" vertex="1" parent="1">
                    <mxGeometry x="180" y="530" width="440" height="60" as="geometry"/>
                </mxCell>
                <mxCell id="21" style="edgeStyle=none;html=1;entryX=0.5;entryY=0;entryDx=0;entryDy=0;fontSize=20;" edge="1" parent="1" source="11" target="14">
                    <mxGeometry relative="1" as="geometry"/>
                </mxCell>
                <mxCell id="11" value="" style="rounded=0;whiteSpace=wrap;html=1;fontSize=20;fillColor=none;" vertex="1" parent="1">
                    <mxGeometry x="135" y="620" width="530" height="80" as="geometry"/>
                </mxCell>
                <mxCell id="10" value="" style="shape=image;verticalLabelPosition=bottom;labelBackgroundColor=#ffffff;verticalAlign=top;aspect=fixed;imageAspect=0;image=data:image/png,iVBORw0KGgoAAAANSUhEUgAAALcAAAA9CAYAAADvRfghAAAABGdBTUEAALGPC/xhBQAAAAlwSFlzAAAOwQAADsEBuJFr7QAABBVJREFUeF7t3eFvU1UcxvH9K7wy4RUvCGCI2RgXIxD3BjDREEgEpmDGiCIJZNHMIVsGYzA0SkxMZB3WFtZUYNJ0bFNcQDechVCKWwca/o9Hfne5l7N6mLh7N8/95XnxSXbuOT178113ettsdWtergeRRoyb1GLcpBbjJrUYN6nFuEktxk1qMW5Si3GTWn7c69Y3Yn3Dq6hv3IwGbyuRCnUStW2CKOnqbBeJNGDcpBbjJrUYN6nFuEktxk1qMW5Si3GTWoyb1GLcpNaSxH3w0BF0957FNwPfolAc9snXcm3v/lbrY5JspjpjvU7/r1jj3negFd9dHgyDfh5ZI2tteyQR43ZTbHF3dJ20hryQ450nrXslDeN2UyxxLybsgDzWtmeSMG43RY5bjhe2aP+LpTiiNOdmMTOVQae3wR+/0X8f5ckser2Gf6y1ealnHL/dG0N2V7113sS43RQ57uylhc/YwTrbXEDO4OaecZC4/xz7PBxv7foehdw5vO9589Y9z+pDKQwWUjjbNPfDsRDG7aZIcctdEVuspmCtbc4U97P3ivN358W9lBi3myLFfep0nzVUU7DWNmeSvcy9o6qNe2XHEG4OfBKON3jbsbvnGobGf8fDqZ9QzPTgg6ZN4fyalhQy+a9w1Nvoj9/8oojLvTux8Wg/siOTKJV+wY+ZTv83AeN2U6S4L1xMW0M1BWttcya5D27uHVVt3LXjbecnUL43iv7293Cg5TjOjPyB6mQmPJOvaruBO6V8OJZjzvTU06inRnGx6zD2tqdRrDzG7a/fYtyOihS3LVLbOpsoj30REnMld2TeOIj7da8P2cpDDLc9e3G5xfsYF0qzGOmbG9vifnQrNe/ZvSVf9b8H43aT2rglzmLuWDg245a5X8s/IOW9Es4LiXV26NNwTW3c5jN/cI1xu8uZY4nsZe4d1aq2Aq6nPwzHtXGb4QYk1r9GPrOuYdzJo/YFZS0z7nUteRSrd3B917NnbnmB2T32BBPp/f6YcSdfpLhf5A2cYK1tzhT3rUC5uzGa/zK822HG7Xl7cHr8CR5cbccO7zX/WmPHMH6ensCV5rk3bRh38kWKW8TxJo7sYe4ZBwlvupQL4zTjFmubzyF9awazlTIq5Qeolm+j0L0nnGfcyRc5blfffq9VG3dg085WvPPu22jyFv+n5Bi3myLHLVz+4JScpTc3bceOgfvWuOPAuN0US9xiMYEv1ycCTxQeoVK6icGP7PNRMW43xRa3kOPFv53BhaxZjqPIcmHcboo17oCEK7f2zPvg8rVc0xQ1uW1J4iZyAeMmtRg3qcW4SS3GTWoxblKLcZNajJvUYtykFuMmtfhPVkkt/ntsUsuPm0gjxk1qMW5Si3GTWoyb1GLcpBbjJrUYNylVj78BmmtpQRdCqBYAAAAASUVORK5CYII=;" vertex="1" parent="1">
                    <mxGeometry x="170" y="629.5" width="183" height="61" as="geometry"/>
                </mxCell>
                <mxCell id="12" value="プライベートチャンネル&lt;br&gt;に入るためのコマンド" style="text;html=1;strokeColor=none;fillColor=none;align=center;verticalAlign=middle;whiteSpace=wrap;rounded=0;fontSize=20;" vertex="1" parent="1">
                    <mxGeometry x="353" y="645" width="296" height="30" as="geometry"/>
                </mxCell>
                <mxCell id="22" style="edgeStyle=none;html=1;exitX=0.5;exitY=1;exitDx=0;exitDy=0;entryX=0.5;entryY=0;entryDx=0;entryDy=0;fontSize=20;" edge="1" parent="1" source="14" target="16">
                    <mxGeometry relative="1" as="geometry"/>
                </mxCell>
                <mxCell id="14" value="MetaMaskでの認証画面(実装不要)" style="rounded=1;whiteSpace=wrap;html=1;fontSize=20;fillColor=none;" vertex="1" parent="1">
                    <mxGeometry x="175" y="740" width="450" height="60" as="geometry"/>
                </mxCell>
                <mxCell id="16" value="" style="shape=image;verticalLabelPosition=bottom;labelBackgroundColor=#ffffff;verticalAlign=top;aspect=fixed;imageAspect=0;image=data:image/png,iVBORw0KGgoAAAANSUhEUgAAAnMAAAD9CAYAAADXlfGPAAAABGdBTUEAALGPC/xhBQAAAAlwSFlzAAAOwQAADsEBuJFr7QAANUtJREFUeF7t3WuQFeW973FfnTqn6tQ5depUndq1a7/Y+5ydfUuyNTsXHVEBHUFU8BInicZc3PEStyHEGFAim2QiKt4wKgQhiCAKiiBOGBwBQbwwiDABBAHBARRFIRpQlIjBPGf9e3gWz3rWv3t1r9Xr0jPfpD4ls1bfL0//1vM83X3c8V/6monja039a+b0QUPNsIsuzRRZZm1dAAAAqqnhwlzzWeepYSkLZNm1dQIAAKiWhgpzWQ5yFoEOAADUUsOEuSw2rYahyRUAANRKQ4S5/mecrYaiLJN10tYVAAAgTXUPc/1OO1MNQ72BrJu2zgAAAGmpe5g7e9g31CDUG8i6aesMAACQlrqGuTMGD1NDUG8i66itOwAAQBrqFuZ6c/Oqj+ZWAABQLXULc4PO/boafNLw81+MM3MemxeYNv0hdZgw90y8Pz/uzbdPUIdJStZV2wYAAACVqkuYO2XgYDX0pOWll9cYY47kacOEcceT6WjDlEPWWdsWAAAAlahLmBs89CI18KRlx84d+UC2c+dOdRjNT352Y0GYmz13vjpcOWSdtW0BAABQiZqHuVP6D1LDTprcQJakdk2aVd1x02pmtWTdtW0CAABQrpqHuTOHXKAGnbRUUrsmw7rjyrS04col665tEwAAgHLVNMydePIAM/Tr31aDTlrkBgY3kMnNENpwmk2vvlowrjZMJWTdZRto2wYAAKAcNQ1z/U8fooacNPm1a1dc/RN1OM3efXvz40mw04aplGwDbdsAAACUo6ZhbtDZF6oBJylp/hw99iaVe/OD0IYJ4463cdMmdRiRJCD6ZBto2wYAAKAcNQ1zQy+4WA04Sfh94uqhklo72QbatgEAAChHzcJc02nNarhJatqDs9SAVUttizrUZYtLtoW2jQAAAJKqWZjrf8bZarBJSoKUFrBqSQKltmxxybbQthEAAEBSNQtzzWedpwabpOTuVLnJQePfjbrs2RXqcJp9+97Nj/fxxx+qw1iV9JkTsi20bQQAAJBUzcJcNd/Favm1dhd/70p1OM1HH32YH69ad7JavKsVAACkpWZhbsh531SDTZrcmjmpadOG0UhNmx1PVNonrhTZFto2AgAASKpmYS6NO1lLcQNZkto1abp1x5UHD2vDpYU7WgEAQFpqF+aq/OYHv3ZN+rZpw2lkWHfcJG+NKIdsC20bAQAAJFWzMKeFmjRVUrsmN0q442rDpE3bRgAAAEn1mjDn164leUm++9aIJH3tKqFtIwAAgKR6TTPrSy+vKQhz2jBh3PFkOtowaaKZFQAApKXX3ADh1q7t3LlTHUbjvx4sSV+7cnEDBAAASEvNwly1H03iBrIktWs33z6hYFz5WxsuTTyaBAAApKVmYa6aDw2upHatkr525eKhwQAAIC01C3OVvs5LaszmPDZP5d+NKn9rw2n27ttbMK42jJXkjRJReJ0XAABIS83CXKUv2vdDVz1U+k5WixftAwCAtNQszDWd1qwGm7i0cFVr2nKVQ7aFto0AAACSqlmYE+Xe0eo/ELge0nr5PneyAgCANNU0zA06+0I14MQhNyZIqPP5d6PKnazacBp5ob477rQHZ6nDibT6y8k20LYNAABAOWoa5vqfPkQNOJWQoOUHMm04jR/m0gpsUWQbaNsGAACgHDUNcyeePCD1N0FIeHMDmYQ7bTiNNJ3a8T7++EN1mDTJuss20LYNAABAOWoa5sSZQy5Qg065Kqld++ijD/PjpdUnLoqsu7ZNAAAAylXzMHdK/0Fq0CmXW7uW5CX58pgRO56QUKgNlyZZd22bAAAAlKvmYU4MHnqRGnbK4QayJLVrfl+7eyberw6XFllnbVsAAABUoi5h7pSBg9XAk5Rfu1bJa7yS9LUrh6yzti0AAAAqUZcwJ9J4V6v0j5NQZiV5r6oM646rDZMW3sUKAACqpW5hrt9pZ6rBpzeSddW2AQAAQKXqFubEGYOHqeGnN5F11NYdAAAgDXUNc+LsYd9QQ1BvIOumrTMAAEBa6h7menNzK82rAACg2uoe5kT/M85Ww1CWyTpp6woAAJCmhghz4vRBQ9VQlEWyLto6AgAApK1hwpxoPus8NRxliayDtm4AAADV0FBhTmQ50BHkAABArTVcmBNZbHKlaRUAANRDQ4Y5kaWbIrjZAQAA1EvDhjkhj/Zo5OfQybLx+BEAAFBPDR3mrEZ8UwRvdgAAAI0gE2FOSA1YGi/nr5QsA7VxAACgUWQmzFmnDBxsBg+9SA1a1STzlHlrywQAAFAvmQtz1in9B5kzh1xghn7922r4SoNMW+Yh89KWAQAAoN4yG+asE08eYPqfPsQMOvtCM/SCi9VQloRMQ6Yl05Rpa/MEAABoFJkPc76m05qDR4XIA3ylf9uQ874ZBDS3Bk/+LZ/JdzKMDCvjyLjaNAEAABpVrwtzAAAAfQlhDgAAIMMIcwAAABlGmAMAAMgwwhwAAECGEeYAAAAyjDAHAACQYYQ5AACADCPMAQAAZBhhDgAAIMMIc+jT/rVllBnftsFs2/+peX3u0OCzz192j5m4YqfZc+g9s+mefysaBwCARkKYQ592Yssc8+Ihk/vfEWN2LzStTV81Xxix0myTj+SzXfOCz7RxAQBoBIQ59CpnNz1qVucy2J8PHTKH9mw3b2xZbZ7veNpMG9ekDi9GdH4SBLe/mEPmtalfNv2avmXuC9Lckdz/95lN476kjteIhja1mw2y6BJEj/qk6y51WNTf4KbfmGcOFu6vw6bbvNP0j+rwAKAhzPUS2kW8nheFei3Pv83dVzBP8anZbbaMOF4dXnxxxJpjNXHbHjHfbjrZ/N24V81b9rNNU4LPtHEbTdIwpw0f5S+H3zQv39HTHG2N7fpMHbZqds0rmH+W1SLMafMIHP44+NEjjux/w+zq7jY7ujeYtR1PmaVz7zc3to4xI1qycdwn8V/b/1S8LSr0p00zzG1NX1HnB9QCYa6XqGV40i4On5kDBf3L6hHmpEZt1q7CeQb2LIlsKh3QdK15fHfPeJ8e2WLWtnyx8LNcGFw34gR13EZT7TAn3l12VcE0CHPlq2uYi+vIIfPpoQPm3e7NZsOyp8yTk8eaG65pUeeVBdUIc0LOs7R/9IWdWx+8MFodHn0XYa4MEhp+Nn2F6ez+o/ng0J8Kft1u7XrSTL/mfHW8aiLM9S+sTXPsW1IYPjS2Ru/I3nVm6dieX9hfbP/QfLr/dbOh7e6GqqEoJ4BpZH/8pWlaomlptZyEufJlIswp5EfPpqZ/UecXphrLkXe0v6s2X1+1wtxnh183L1ye7o++sHNrezv9eFGoYcLc+R3v50OR+Kx7nhnVdGy+/VoWmzWHjuS/P3So26y+ofZ9mY6/bJZZvPcv6glm1aOPUl8Pc24/t7Q0al+zaoc5e6GQc65oPkotp3/BSXs/F13Qygxz5094wWzc+9Gx6Rzeb97qnFnX5rGshjnZB0lroaoZ5qRv6+bWeNeDWGHOaYK2Pj2sDGcdfNU8PfLL6vwqQZhDXA0T5iZ6F2L/Qvo/5/yx4Psjh9abNU2fLxim2pqbbjdPv5ebvbMcmrAQ8E+XjTWjJreZJV3bTffeg+bwey+ZxU1fVIdNqq+Hub++p9sEu8aZX6UOr75FnVe91SrM/e/p75hDpvCHi9/EKrIQ5r4/d3fo8XF473NmTkt9HkFTizAXRsqjMa2/Cki5tLhjsVm8bK3Z3L3TvLHrD0GrwydH9DChHQdxqN0gUvJBZ6s6zzScM3WDeedwbjbKfI/sXmIeaKnOD4LrVxPmEE9DhLkhTQ8dezxEjtxVuHl64a+cogJ924MF39fChe1yOXCWIYQW5qZ1577yhvvsYHiYq2ahFyVObVSjhbmBTdebtj2F80pDoxaYtQpz/jkX1ncwrPagahKGuX8c+ax5NeRCbP151/y61NBVWlvln3fVIM9ivKH1AfNYxyrz+13vm/cPl//8xWqWa/ID/7mmL6jzLZeULfd3HSz6USPkOvXeilvNj5tOVMdNQ1gtImEOvoYIc/+vdVNBXye5yLzacuykPKPppqIasXJ/GZbL7RBf5NDe4E4wsXPPh+ZgZ3Eg0goxwlw6vrFMFubYfNLy2pzGvzvNr9HWaqyjQpm2n+RCoZ1zYU1rjRzm5GI8M+a5JMd+re9azkKYq7eLxrWbF/bo6x/Yv82s75hmfj3ye+r45Rpwx0rzWti+ObjdPH/HMHW8NGlhTqvsABoizA1b5vRjEe89Z6Y1Hev/cErLimOPjshJ0j8iLfb5ZQXLmSOBLE4TDWGuOmEu7KYHCTVLWuJ1RvZrhoPx63CMlUNu0nCX298PalhwQllYmCt4XMtR9g0ZvkYOc1+Zs7eoVkUuhgcP6hfJPe3D1elUS73CnNS2jWq9x9zftizo9iE/RPcd/CToG6Y2rR7+2Hy093WzsXNuzW7wOmPsXLOoO7x/26HupWbWuO+q41biSy3jzeSu94qOGyHHyLtdtetnqYW5vhDgkVzNw9xfj3uyp2+G40WviewvuzsLvm/verfg+yNHdpudHe3575fPHKfOK01hTVtxwo8gzKUf5r7a8luzfH/hPIQUuNunn6uOo/FrhkU5d+vVgxa63McWaOvmhrKwMHf+ksIfWFFNWH6Yq1YNbFJNLfPNGqV59bNtM8y3W/QQJcfxlonxj51KVTvMnXVNq/n5hIfN7zo6ze+7d5nd+z8J7QeXxGd7VpknRlavqU9uaAr7kSDznj/2PHW8SpzadLn5Zds20x3SJF+t+UYhzCGumoe5WHcSJbVpSn76UnjZTr3W6NZR+X4NQ6+ZauZ0dQcdfA8c+sDs7X7dbFrxgLnrsuJ+D3JyX916czCN8a2FtYOWPCzSn99PLutnWkbeUvDZQqWJ9i8H15n21hvzw1TykM5a1YSJRghzUc1nSZvLimqGRYln0zWKUs2h/rrZ5+jZ8cPC3MN+H8/19+bH8Wlhbs09K1O/IcUV9UNISLeIWUo/1SOHN5vnW3oerXLqxNfUZZRHTDw3sjYXS+1cSus80fZtqg7vNesm6rW1aSj6sbZ/m3l+wiXqsJWQ4Pi9ic+HNqnKg7I3zfl5zZvgxV9N3FF0jBLmoOkVYc7t26T9mpPC8Y9N55rbOt9Xq87FZ0f2me6Hf1SwrOUWhnIxLKdmrZKTtC+Fuaggl7Qje9iDhhv1TlaRVrOm7LM/3DNHDXN+0JF+dhtH6s3WjRjmvt3+h6JzXWpsd8wpDB/acIH9v69qzZNVzTCndR9ImwTflSOq1x1B7lLfc/DtqoSpS0Y+aGZ1dps/HNSvCYH9m8zLSzryTdFCnkQQ55ElaYQu7S59whw0mQ9zUvC5N0uEhblNqw8Ufe6Tk8RtYmm0MGcfFREUIIcOBLWK3Vs6zIKm40uGp+9MXJR/7ID0jZGmlu628vp9aPOSZd88ofphTvqzzO8OKXz3rzLzWs4xd276c/AA57AaV5f2LLVGLyxrEeYk5E7YVPi51PhptZWNFub+aWSneV0G88dTXssWVoMXyB1P1X5kSTXDnDZtl5QhH+zabrZ3LTNPd/zOzJrQ86gS/+0O0toxce7q8JsBImptG4W0svyo9V4ztW11cEfuH49EBLiUpFGOaGFOfljtbKntY7nQ+Goe5txnG4lHvLvxzJZHCr7/cdubBb+cPzu02SxvHX1smBtHFBTQFV/o3nvOzG4Kv9MvjmqFuate6HkhfIGjzYGlwpPalOg0TycRJ6iVE+aCC+uWP4Q23cgDm1cEJduxaVq2aUz9Jbt3k+mceZP6CAG/b5iI6h9Wr76MbnipRZiT+fg3l8hNIZvGFdfCaGFO289as6bWJD62452ii+3hrvtiPQJCAozWj1K2X1gwC+t7Kar9DLpqhjkJ5HIHvg1tr3Z2mEUz7zD/OfIydfhSwmrEG71/qdoVoQbSuIlKK8/SOj7Qu9Q8zLkGNf26qBD1a4uKAozTH0hT6YXOPQEbKcxJ0NGepWY7u5cKT1qhoD3GIo6/mVC6gCknzNlllO3gN3lf9vCroQ/ttEGu5EOdjxwwb3Y9kb8bL6zmIurho30pzGkXQe0GmThhTg1MITVfMqwW2ku9zDys07ysZ6mbGqKeRVfNh8JWM8xVw8ktC4vu6o8qtzQD71hjdhx83+yYMzr1ptMwRX1AayCN/ajdwNTIxwfqp65hzr8Tz3/vo/1l6R7IpV4wHHahk/4y7gMeW8YtMV0h/UnsxayRboDQ7lqUdXptas/zhkqFp7D+M2GPm4jiv41D+M1eScOc/Op3w6qs256OnsL+uhURTfPvHevbNLhDqX0M8fGu58zvVrxT9HnYg3GtRghzadL2kz3+RdET6HMBTJr13WloYe79lkfV86VSUYHupOlvFNTiW3FviAm7IUJUK9BlLcyF/ah0j5koso3fllGOjndg/Qxze0t1ri+ukj+A5PVdB/cGzwnVvpf9P6P1+pq/o7mcH8Xom+oa5opCgXeh8J/tFucXYOhJq/SXsS9X92m1D9pJFTasRgsBSS7QWhOrW7MW56T3HzAbSPCCaiuqudcOk7QQuqSjuBCVQLdr7vdCa00+2jan6EJw4bhHTceWA2X3iQkeWxFx4e9rYc7v46rtQ/+ck2a3d5rurFrne63JNbRmLXdcJrkhJvSGiJxqNLlmLcwJ7RyIE+ZC99GuwvdwV8MXOnJl1tFn5b2xZbVZ0dEW9BF0+weG1ezHbeKvBsIc4qprmCsKXl4fLr9pME7fDC3MSSjQnpitVWGLRgtzoc2HzvaKc9JrNWph/aDChN396W+HJIVQWIf10MdIHDlg9nbcEhm6pFZ17MyVZtPeT/PTKyXqjs1GE3Y8xmX3lzadqDCn9QPym7DkuO5suraq/ZRk+e3+D+vzVs4jRuT4/uVqSaGF08or4y5XeRzSQ51bgrsgi+58PFI8r0a+WGtdY8LKV5df855Xo7uG41B/3Od+7NbqAcEa7fys1g87ZFvNwlxY/6SKKM8C08JcWEfUsAtio4W5/zN1T1FtgdvEKrTl8y8KZzVN02tLlFrLMGFvwvD7OsZZHhHV+fzt9sJXtslru8p5cKc8SV5q60o9LPXgC79Ux29EYcdjXHHDXFCj4XwntePuXctaVwi5AMY5nvxzIqzmvaj5Mxfm314xMbjIhnXKj9NPLkxY3ztLQuLLY89Rx3U1j30y+jVUIeTc/nDLc+aJidfEPi9rRevuEaejvxaUkv6QrDa/5cIvY+tBOz8Jc9BkOsxpzwLTCuGwX7phF8RGCnNyYZmuNY86d90Kbfm09R7RWdxEmqRGSiuUtX5mcZYn6nlx1fhF/PnL7gl/Ib+3PRtd2PEYV5wwJ4+B8beXvw/V8zrmXdJxw5yQ5s+DezcX3ZX8v2b2PK7HnY5chCt9LZfU7N7a9eeC6bq051K6fvDw6wV9w8p2cLtZ33Zb3Zr5fFr5UepGqrDa/Eb68aTd7NMId+lq5xdhDprMhrmwqv3eFubC3j26b0lhrVWc8CS+MGKl3jE9Ru1caHOv0u+u1PJEPS+unOaxUiQ4TtqkN7lWY37VFnY8xhUV5t57T+9LGijx3mTx7rLCYzNMkjAXRqtFk3VLo0arVKCTMuijzuL+VGHnbEUO7zU7O8bXNdSFPr+vxHPmtNp8/00k9daooYkwh7hqFubkl8+c9W/ln6L91n7vQn7wjfx3gd0fFHwvBefB7mNP4d7WvVx9FlhvCnNh/Uzkl7D/EvlS4cmSi1/Rw2Bz4lxItZsUhHZHbNTySPPTyyH9qSppHgsj83tub/G8gvkd2VfTd3GmRdu+YZ3QtWGjwtxbm9YX1XZZfm2KfZC1/V723ysTv6w+Cict/nq6TfVJ3wBSipwvkX3octw7XUNr0o8cMLu7FpmHJtyQvyNShr3mxrmmM8mP3EP1ebXU349caF5SukPEaSrVjrG4TfG1ot2l6z9dAWhkdbkBQgqxUo8c+WK7Fxy8GoEwvSnMhd1Zt3dZcROStnxh6x1acxBx51/Yr/KwddCWRwr+tzu3hd5pmkbzmOtfW0aZ8R1vh84vq0FOaNs3rTB3oGNu0Wfik73PFO1r/9EltmmqlmFOyJ2SW/asrcoDfqW8GrPsj6EBV9gfNFotVFTNb7ktFtV+0b3rwgmrQ18+L8dRqVCmHWNxy/Na0n7kJulPDNRTXcJcnEeOFJ1YMfvh9JYwF3Ybf5LwFLbecnFSC64cLSj+w8jFZp1ywZHwtX26HobCtleYIMgdfa6cNr0kJMTd2rEz9CHDQl6e/fIdyZ+x1yi07ZtWmHu3fXRBc7o8f6t7xW+LHgMT9ZL/Woe5Wvj+3N36Ojn9LdXjPrdN/GlZYc1oD01oM117StyJHeOu7kpcNK7dLNsVdWdvvNedac+4lPPdfe5nIwg7Zj/uXmQmXZbuNRBIW13C3F9N3FFw0vgdTbUCzn2ZfpTeEObCmlejmiC15Qtbb/H5EcvVsOjfDFHur/Kw7aWR9Xpzbnhn8jgkoP7g1tmx7lqVZrGsF87a9k0rzMUNS9qjffy+nFHS6DNXa6dM3FjwI0FCifvyfm17at0iLPWNCk65cP6EF8LfiXpUmsfzt0beZyZ3rDfbQ+4wz8sFuUcvi9+crZXLgcP7zd4tL5lnOx43M1v/s+j1jD77OsixrXeb+9uWmSUdz5pVW3YFD/uVd1ZHBedSpAy5T2siP+rjPa+adcsWBM+nK/eVaEmFvcu8Xj9o0LjqEuZKvaKr1JshomQ9zEmBElbwJQ1PUWFOhD4gNVdQt7eMMpO73tO/zynVNylse/kqqSGTt2zcN/cF09n9x1gPCZZ51aO/UTXE3b5h0ghz/p2Ncry92qK/01aTxTAnCvqPeV0TQt8DevAN80rbpIKH1F4y8kEzr7v47lDT/Xh+GBE8M1F5X62V5G50Yd9s09r6WzO7Y6lZ0rU9CEOlfgRZUlOV9G0YUY8gSlPYD+S45Masx3eVLkvCpH0ME+YQV83DnNbR1L/7rdz+ciLrYe5zN4Q8JT0XsKIKKW35SoW50Gd0HdlnXlr5SmiQi/Mk/Dhho5JX+Wg1GqGOHDLvds2syWuDaiXO9o1SaZhTt/+2R8JrYFJW6tiutq+0TDJzu/+gdjM4f0n818ppdrUPK5qmkBDp38iTtJ9pWPeKWCq8+UJb/rRJsN3Zkvx90y4Ju6NXvBs73LoIc6iXmoe5OP3l/Ic3xg1MIuthTnzhsskFv9jjPDpDW744F7wTW+YU9Gex/UMkdBc9DDbn0JbZsUKR7Oc1Ic2z8l7UpA/+1dyyPjc5Zfp5Rw6Yd1ZMNXdd1jj9ctJS7zAnx+ij6/flA789j/tKmIsiP5Jmlfti9xI/2iRo3Nb5/rHt3j0v0ev4/IdAx7J/m1kzt/D5fuUKgtLcLrNtf/w3syQh4bbU2yjikmP8sa7d5sDh+DV1cpNXqQcoJ0GYQ1x1aWZFadLc+tM5G83bB3fGegZauWFODLxjjdm5/+2iX93umyfKaaKUX+L5R5Ac3m/e7HrCTL/mfHXYcqh35R45ZA7tWmWWzxzXUJ2r05YkhGnDVhrmLHlVlfzwsO+0Jcz1KNU0qknyvMNzpm4w7+59OfHdu38zId6NKUf2v2E2ds5N9Xz1Sf+3cTM7zKLOV4PHTe07+EnQ761UjZgMI2QZZbztXcvM0x2/q2pfNulLOKXthaB/3u794cvZ6Mclei/CXC9RSZgLE9yIsfuTipoo5c7SkSP/Xf2uUrb2UO62fGv982b+5J/26gDXV9lO767RraMysa/l+B8z81mzesse88GhPxUHgKMvf9/Qdnf++XPV5LaMSCD59NAB88Gu7cHL5+UmhAdbr+UcAjKIMAcAAJBhhDkAAIAMI8wBAABkGGEOAAAgwwhzAAAAGUaYAwAAyDDCHAAAQIYR5gAAADKMMAcAAJBhhDkAAIAMI8wBAABkGGEOAAAgwwhzAAAAGUaYAwAAyDDCHAAAQIYR5oBeYMidS83y6SPNCZdONg8tnWV+3fRldTgAQO+TyTDX6BcsWb45S581C+/8lvp9I5FlfWTpQjP10q+q38dxStP3zdgFL1S8vqc3jTF3L33eLF76TN7TC+4yVzWdpA5fT1dPf7GiZSt3m4XtL9l2dy19Kvhclq0ax542XXusu/ts4dIZ+XNT+76UmdefWDCPepP1lqCsfSchupzjQLZLkjLMhnXtu3qxx3Cj7S+gL+pzYe7/Xj8/svB1L4ra9xopaP0Lklz0vnnp99Xhy2ULzzQL9bBwEMW/gKUZ5pJu+0qceMkNZvSN15vLB5+sfh8laZhLa5tFzVfmIdOTfTp7wa9jL1uYUkFMluOyS+8pOBf90JHkXC0VDio57ysRFo4rOe6Trou/DH6ZU49AVWp/Aaidmoc5rfYlTNhFSysI/QtPWAET9StblAoUMr67jK64hVqlocUuQ9JQ518ASglbn7SCiS/udvn7a2eZuTdfnP/7vNsXmfuvTXZB+af/eMj8bnGbmTV1qhl/ec969DvzCvOd755dNKxG9kHY8alJY5v5x3iYNC+u2j5xfxC556J2cU8SWkqFgyTTCiPLrm2zsP0QtUzu8thyzR8u6TkntOPKhjm7PO4wYfOOe7z47Law89KGKSVsHwKojoarmbOF7VNLnyy4gNgCyxYWtinHFjh+045W6Je6WIi4gcJlC824BVic5SjFLWjTLDjtdKOCYr3DnMzfrvOJTWeYK2csTrS/hEzjdxO+U/SZuw7lXgyFv08q3WZ2eO1Cb8nyVtpk7tOW0wYL+bd7rsn+u33p7ILzrpxtGHY8u/PSvo9il8OWE7I/3GPc/kBy560FP7eckXHcacjw7vdRkqyL3QeybO62d7kB2/9OY8vTpD8IXe5yad8DqJ2GCnNSUMUpkGxBePuld/QU0F7hFhYK/M+lQPcLa58fKjX2QpGkUNMKZXtBseJsCynE4yxjXHH2QaXBJEzcMHfV9Kfzw8i8Ry+Yk/gC7we3sM/CxD1WrUq3WXC8lAgKScJEErLs9qLv7yM3lMj8/XCQJLSUUu60ZLnkfHLPT+38085jd57uv7VjNck+TbIuMt0xCzrM3XfODD3m4p47QoaVIKetf6llsttSSLmzYMEywhzQADLbZ87+2tcKkrCCLU5hlaRQtOzyxC3UbKFvC0XLjm8L20oLSVmuuH2n7DzjBJR6hLn+TT8yrQujm3xskDhz5G/NbSPONCddMsbcOvVx8/iCR82U8T8yw5pOCb7/xk0PmQfmLzUd82eZSVMnmhsvOKngs99Mvd+0Xhq9DWoZ5mRecQK7DFdJTYtPllnbzpasj9tnTju/7Gf2h5c2HV9YII1z/vq0czNq2/uBWP62+83Of8z1M9XltuIE6iTrYsPc/AVtoceAXac4ZYZ/nLhhXQu5liyzW/OrbVsA9ZHJMGcvMmGFSFhBGacADQsU7i/SpOxy2sJPPps2fWZooe9f+MthC/c407HrFjeMVRJMosQJ0gObbjATFtxnfnR03rJN50+/oWAYWb6F8x83T86fam754bfNsH8fb6YsWmEe+c8zer7/4c3mFzMWm0UzxudvgHA/u/HGX5qrLupXME3ZRm6gcsNcnPUvZ5vlhzl6nNjjR9unaf0ASMo/p/ygoJ1z/n62y14qiGrTKkULuFHbyl822W92fDfYueO4/P1q5+WWB1G00G6nGTXvOMeTKLU/5PuwH4B+0LPzLLXfAFRfzcOcLQDKvejYwjHq129YgRSnMPYL8zhkfkn7KoWNI5+n8Ws3CDQlagjsvOQiIvOLO283yMjfcS8kpcTZ9idccp+ZN+OG3DxPC/7+3HXz1b5vzzxyk7nw1J6aODF0wpKC5Qu2j7e82meWv87+3zJu1LFVzjaTcdwL5T9ceqUZ3nRxMJ69+Nt9Fba/5XM7bFxJjj05ZtxwUOpvIevlr7c9r6O2oTatKGHHk0wn7Hz1yyd3WWVbphVckqxLnNAU9xwMW4c46+bvtzj7DEBt1DzMSaFRyckfXOAWPBFZEIaFtkYKc/5FQ9jCsVSBXIqsZ9RFWZbXhrhn7rwtmKcd1i5DWLOedmGJupDIssS9AMbZ9n54O/v2JWb26MJHi2gXJvnMXT7/77DPhN1e7vaU49A9lux207Z5tbaZ3c/lhLC4ZD3deVj2+PBDib8P7Tnnh9AoYeueJACJsOGjyiB3P/rnqA0z9nNt2YW2T31J1iXqWLH8ZQ3jB7IkZF+6PxhkWtL0W6pMBVB9NQ1zcQucMLYwkf43UQWhdjEXfmEk7IXaLYzj9E9yBSGgRC2Yxi9Yw5Y7CZmGrIO2je13ws43LITY7eIX1PZzd/iwi42dtjSDxins/SDgkseRtC1cZNoWLTNLO57u+XfOUx3PmKWLFpoFC+eZSZf3HKfadgz2kbet/eXVPhOyn/ztoH0WjK8cB9XeZjJ8pcdNGO3i7+4nP5TI3+4PG9kmYRd7bdpR/HmVog1fKhi5y+9uW3edw8qxsGnbz+25lz8HE5QZpbaVv93DJN3mPtmfdvllu9iwHudYBVA9mQlzURcQnxQ42sXNH88W1u7y2M+ksIqznHb4cgrIqAtdUnbbRvW50S4e2jZw+aHF/1toFzE73STrJ+OEhbmvDDzfnHfBN8yPp3eYadf1/PuiC35ifrFgrrnvgqHB30MGnhoMq+1/+cxdPv/vsM/kYqUdC9p2sOvsz7ta20yOZwmJ2rGeFu3i7+4n/5zyj2k7vl03GwTCRP2QKnXe+7TjSftB55Ll1fafLJv9PKwci9qn2ja02yPpj0eNdoxp/P1TKe34cLnrmeZ8ARSqSzOrnNhxgpLLvdCWKtTdAlkKb/tvv3DXflXaYWZf+tOgEIoqgGxBVW4hVerCEpfdpuUsh12HOPsjLNj4FzE7XNLl8fePr1/TN821jz1pJg3+SvC33AxxV9tkc0NT4fEp28O/ILvHj/a3/cxtwrVhSbtYhV08/W1UrW1mA4a2bGnSLtbufrLnor3D0w0mpY6tUkHAlzTMCbcssPszcnmU89GeX3Y/JglzYcss28Y+k8+OZ6fvDheHLHfcQGj3SRrHTXAOlSi/3H2snXMA0lHzMCdsgWILyCjayV+qULeFdjC+U9j4hbBWuMtF1R0n7IIjn8v0yw1yQuaftK+d5V5gKgmEpS64lg0b2raw27V9+gPHtnsZhbYsS1SYG9D0MzN+wf358PbVC+4ysx65yQxu6qmRs2TblBPmTrjyAfPY4uWmY2G7mX5dv2Af+9Ox5LuwfS/Tlu++fv2cVLeZe95UctwlYY9znw0PUeeiHDNRyxl2boUpdd5r3KAktOPcrmNYkLOf2/lPbrqoYJo+d53CwpNfzrjDxgl07nolPf9tuVduuWHnHSdAuvtYO+cApKMuYa5S5RTqlhQu7gXaFmy2IC5VQNnh07iY2kIxTuEt3It5uQWxL84FpNRyuheWaoeMr5zanJtfz52s1XBi02DTPPSckvOQ4yhqXdPcZu6wcY+VtGiBS44Zv2ZOOxZlXFle/xwrxZ6D7npbaR33cba/hA8tzIftW/u5v73SXA9ZJjuNSs81d1oiTjiz44T9yPG5ZVa1ywagL8tkmAMAAEAPwhwAAECGEeYAAAAyjDAHAACQYYQ5AACADCPMAQAAZBhhDgAAIMMIcwAAABlGmAMAAMgwwhwAAECGEeYAAAAyjDAHAACQYYQ5AACADCPMAQAAZBhhDgAAIMMIcwAAABlGmAMAAMgwwhwAAECGEeYAAAAyjDCHhndO0xPmuAXGHHftsPxnfzvuE3Pcw7vN8U0DCoYFAKCvIczlnHLxmp6wMG62+n0jscv6Xy4eon4fx6Cme3JBqDbre8K1b+RDV36+sq0j+OsWBLdJq/N/56fjhDsAAPqqTIS54weca467fUPPxf6eneZvz7tKHS6uIBx4AUKCzb9cfL86fLnyocMJIpUqJ8z5tVi1CHNBiJu0P7esH5nPNQ1Uh4kjmI6/r6JkIJADAJCmTIQ5CW/HPepcsHOBThtO8z8mOeP5Ytbs2Ga+cmvD8suQMNSpoTNKyPqkFeZCg5UyHb/2LNgGueHytaBhnGnlm1e97ebW9rmfAwDQFzV0mAtq5I7WxPmBThs+rnygiBnm0mjWy08jwXzjyE83IihWGuaOBbA/BbVswfSc+eXDqrdePeN9ZP77uE/zwwefPbxLDWLBdI8u07Egd3TacRDwAAB9UMOGuSDITXmv5yKdC3EFge6mleo4cSUNc8LWLBV9ljBM2NqtSvq8uYJlKDHfSsJcvjbO2VbatgjbpsG8j4bA/HAxwlzw79y0gv9SMwcAQKiGDHMFQc5yAp18r40XV9IwV1Cr5jo6vna3ZTmigo4vP88YoabcMKdtp6hxe4LfseBmh5XgaoNafpphvOkG42nDaQh4AIA+qOHCnBrkrHvj95XL1yiV42h4KQgek97P/fdYUHH5Yakc+ZAUYzr5dSsRxqxyw1xQA+fVikUFV/tdPrzZbZf3J/MvF3fl5h0vsIpgOtTMAQAQqqHCXGSQm/J+xTVylg1pSZo6w8bRaq/K0RN+9LBoFYTL3Pzizttvio0T5txg5n4ete3y03WWJxjeCW+lQ3bhNtBDYQRCHgCgj2moMOff5JCXYpATUYEkjBZU8rVUMWvIwuQDTkgoKwhx47YVDJtfhpzIgOXUbkWFuWBZcsP2zLP4sSJ+LZ/LrbXr+feH+Zq4f772zWB++XBm5zGpM/9fO05UoBVanz0AAPqqhglzf/XNnxXe5HA0oKQd5EScWjCNHyKC6XhNgEnlw40S5PLfiaPzdQOTO2w+8HlBK/+5M3xYmMtPOxesvnrx2ty/C8NcVAgUdl4SKoN/50JcMB3739x0e2oJZR7RYS6/LIkl368AAGRZw4S548Z0FN+1WoUglw8JZdTsBOEqpWa8fDDKLYtfo3bsu+JgEhbmLL9J1f9baKEsP92jw9q/3WXrqUEMD0vBvI6G24Kglg9z3cF8/9u4d3vmpQqffjAtd9iU9gUAAFnWOGEuF9yCC3SKd636/MCiDROlVJiJK1/jVsZylApzrrDmWz/M5YfzlqconEXMNxjW2TbBNHPTt2FOpht8lptH0OSaoJnVD7fBvOy0ZZnKCOYAAPQWjRPmjtbESQ2dNLlqw1SiJ2zkVFCbY8NDkr52VkGTaQWBMG6Yywc0Jejkw1Hwuq2jyxQ1nB1GmWd+u3rrFKxvbng3zAXD5j4Lli1GmMuHNW/eNswVzEuGIdQBAPqghroBohrygaCCEGflw02JIGXlg1eg8ho9ESfMlVrOgpBWxnZJMr4b5uxnepjraYK107MBTQvOfpizCHUAgL6o14c5AACA3owwBwAAkGGEOQAAgAwjzAEAAGQYYQ4AACDDCHMAAAAZRpgDAADIMMIcAABAhhHmAAAAMowwBwAAkGGEOQAAgAwjzAEAAGQYYQ4AACDDCHMAAAAZRpgDAADIMMIcAABAhhHmAAAAMowwBwAAkGGEOQAAgAwjzAEAAGQYYQ4AACDDCHMAAAAZRpgDAADIMMIcAABAhhHmAAAAMowwBwAAkGGEOQAAgAwjzAEAAGQYYQ4AACDDCHMAAAAZRpgDAADIMMIcAABAhhHmAAAAMowwBwAAkGGJwtyJJw8oGLmSv0/qd7rpN2CQ6X/6EDOg+RwAAACUoS41cxLitIUBAABAMmWFuUpq5E4deJa6IAAAAEiupjVz1MgBAACkq2Z95qSPnLYAAAAAKF/NauaolQMAAEhfzfrMcdcqAABA+mpWM6fNHAAAAJUhzAEAAGQYYQ4AACDDCHMAAAAZRpgDAADIsF4T5n78k1Hm9rvvMTMfmWMWL30mIP+Wzy6/eoQ6DgAAQNZlPsxd8R8jzGPzn8gHuDAyjAyrTQMAACCrMh3mbhp/hxrcooy79Q51WgAAAFl03D9//ngThxbQktBmXolygpwl42rTrFS/Yd8ww5qr83DkL/1kkpl5743qdwAAoO/KZJiT5lItpCWRdpPrScPbzNLuLvP0d08t+u7a9m7z2tYl5olhxd+NWbrLbF0wquhz399NecW8sWKS+l0jOK95mmnrftOsmMw7eAEAqKVMhrnH50X3kbPDad9Z0ofOnWalzmoeZR5c+6Z5bkrh52c3/8I8tGGH2bJ1i1l+b+F35zbfZWZv7jZLxw8s+FyThTC3oPs188yYAer3AACgOjIX5uSuVS2cueyw2neutGvnrlyww2xfWtiEe8KYZWbtxqfMpLmvmNeX/rqgGVa+e3nrM+bx5lMKxtE0epiT0DpzwzbCHAAANZa5MHfnhHvVYOayw2rfuWRa7rQr9cWbXiwKZxLwtrS3mq/9tMO8sHVZwXdff3RzQfj72pV3myntL5mXNq83q9pnmFuvPDP/nR/mBjZfZP795sfMgpUbzGsbXgqGv+Wa8/Lfn3HNZDN78apgWisXP24mXjM0/925zbeZyYsfMr8e9kPTOvc58+y6V82qF540D1xzrunf8iszsX21eXHDetPZ/lszrqU5P96g5h+ZUbOWmRXrXjO/X9lu5tx0Rf47whwAAPWRuTD30OxH1WDmssNq37nkOXTutCvlN5vagPPsTQOCZtjpa3eY5Xf3fDe4+Voz5eXd+WbZwcMmmnlbu82aWWPMVcOvNdfNWms2bVxkpg/r2XZ+mPv6lDVm0+YXzYLx15kfDv+5+cWsTrP+qTuD706+8iGzcPNWs2p6z7RGTV9l1m5fb9rH9MzbNolu3LDRvLTgN+bW4aPM2Ke2m50b15o1GzeZzlm3mNHDf2WmrtphuhffHowj4VH697228kFz8/Dh5vLW3H7YusUsG3928D1hDgCA+shcmNNCmTacppJx43JvaLBNrA80nxb8fcncbfmauIHfnWuWdL9oFg3rqamTWjq3Gba5+Qdmwsq3zEvTLwn+dsPc0OZ7zeNbXwtCovzt026qkBpCO30Jc092d5tnbu8JYiJo8u1eYxZeeWxfyTxfXzfX3No8MLjB45mtywtu4jhj+itm58qp5vLmQUGYe2BDp1nafHL+ewAAUH2EOWW4SvzD3WvMlpcfMaObzwjCmzSx2u/cptYTpqw3O1c9GAQh+e72FW+ZbWuXm2eXr8iT5sytbWOC790wFwSvzR3m4ebiu2MlVMkNF/5NFcePXZ4fR7tZQab5UvfzBWFM5rl9wwJzd/OA4N87NncVLN+zL6wzmzY8aSY39+zfcSteIswBAFBjfbqZVablTjsNQ4ZNN/O715lnh/+HeWBtTxOr/c5tapXaszWPXp3/TsLcqllXB82irh/+4JvB936Y69rQFoQsO74V1tzphrVyw9yulQ8WLd8Vw68yLc1nBcPfsvR5097cLz8+AACoPm6AcKadBulbJsHslbb5ZuXGjnwTqyW1dW8unWdmbV5nOoYf2y6lnjfnhrmoZ9rZvni/n9HTPGtJTeCOlx8OagzLCXNS4yi1cFqABAAA9ZO5MBfngcF2WO07V7Xe1Xr6jC3m9e7XC5pYLWlq7ezemQ9J9nO5E3bN1ufM49cc68d25uh5Zt6snoDnhjnpT3fbip1m24rfmJ8299xtOnDYdebue8cH/5a+bK9vaDf3tvQ8wHdgy53m4XVvmnUzfhD8XU6YkztgH93YbV6cdnW+X5/c+TqpbU7Qp06+/+3yleaxm87Ijw8AAKovc2FOpPHQYJmGO800yc0Ny7q3qDco2IcL+7VwUqN3xYzVZt32HWbr5i091i03j4zs+d4Nc8HwuYA2c1W3eX17z7Dbt280q+b+ylzaPDh4hMjPF2wwr27fGnwn/1274JZ88CsnzMnfA0fOMx0bd5mdmzf3THfr703ntJ/mb6qQN0A8O4U3QAAAUEuZDHON+DqvtJzefLH51vDrzPdbevqhlXLmpSMK+q25Tht2hfnu8OHmO8PiTSuuIT/4Wb4vHwAAqK9MhjnRiC/aBwAAqLXMhjlRTqAjyAEAgN4k02FOSHNpqT50QoZp1KZVAACAcmU+zFkS1ORRI+5z6OTf8hkhDgAA9Fa9JswBAAD0RYQ5AACADCPMAQAAZBhhDgAAIMMIcwAAABlWszDX//Se93kCAAAgPTULc/0GDFIXAAAAAOWrWZg7qR8vYAcAAEhbzcKcoHYOAAAgXTUNc+LUgWepCwIAAIDkah7mBDV0AAAA6ahLmBPSh05CHXe5AgAAlK9uYQ4AAACVI8wBAABkGGEOAAAgwwhzAAAAGUaYAwAAyDDCHAAAQIYR5gAAADKMMAcAAJBhhDkAAIDM6m/+Pz1iNpcqG6JKAAAAAElFTkSuQmCC;" vertex="1" parent="1">
                    <mxGeometry x="86.5" y="830" width="627" height="253" as="geometry"/>
                </mxCell>
            </root>
        </mxGraphModel>
    </diagram>
</mxfile>